<svg width="504" height="116" viewBox="0 0 504 116" fill="none" xmlns="http://www.w3.org/2000/svg">
<path d="M132.58 29.96H143.79V52.79H174.47V29.96H185.68V86.0399H174.47V63.13H143.79V86.0399H132.58V29.96Z" fill="#ECECEC"/>
<path d="M195.791 29.9597H242.091V40.2897H207.001V52.7897H240.811V63.1197H207.001V75.6197H242.091V86.0297H195.791V29.9497V29.9597Z" fill="#ECECEC"/>
<path d="M263.569 86.0399H252.359V29.96H261.329L296.179 67.13V29.96H307.389V86.0399H298.339L263.569 48.63V86.0399Z" fill="#ECECEC"/>
<path d="M328.71 86.0399H317.5V29.96H328.71V52.87H335.12L356.99 29.96H372.21L345.61 58L374.29 86.0399H358.67L334.88 63.13H328.71V86.0399Z" fill="#ECECEC"/>
<path d="M404.34 28.7598C421.88 28.7598 435.02 40.5397 435.02 58.0797C435.02 75.6197 421.88 87.2397 404.34 87.2397C386.8 87.2397 373.58 74.7397 373.58 58.0797C373.58 41.4197 386.72 28.7598 404.34 28.7598ZM404.34 76.5098C415.95 76.5098 423.81 68.8998 423.81 58.0898C423.81 47.2798 415.96 39.4998 404.34 39.4998C392.72 39.4998 384.79 47.0298 384.79 58.0898C384.79 69.1498 392.97 76.5098 404.34 76.5098Z" fill="#ECECEC"/>
<path d="M447.449 29.96L469.399 73.62L491.429 29.96H503.929L475.649 86.0399H463.149L435.029 29.96H447.449Z" fill="#ECECEC"/>
<path d="M97.5701 24.34C51.5601 35.19 50.5701 57.93 23.4601 63.79C29.6401 52.18 35.6401 54.02 16.4801 37.81C40.5401 50.74 37.2301 42.94 41.6901 29.5C48.1401 41.21 58.1001 36.51 51.7401 0.540039C42.6301 32.79 36.4301 32.4 0.0800781 28.99C24.2001 56.19 23.0001 68.06 3.64008 87.88C49.9501 78.23 47.8201 49.11 78.4601 45.55C61.4401 56.88 70.3901 64.16 86.6901 73.37C61.5601 68.69 63.6101 66.19 56.9401 86.95C52.6801 63.47 35.3901 85.2 46.5801 115.45C58.4801 80.62 67.5501 81.08 103.56 82.39C81.5701 57.87 74.2801 50.86 97.5701 24.33V24.34Z" fill="#E92D08"/>
</svg>
